<svg id="Слой_1" data-name="Слой 1" xmlns="http://www.w3.org/2000/svg" xmlns:xlink="http://www.w3.org/1999/xlink" viewBox="0 0 231.41 56.29"><defs><style>.cls-1,.cls-6{fill:#fff;}.cls-2{fill:url(#Безымянный_градиент_2);}.cls-3{fill:url(#Безымянный_градиент_2-2);}.cls-4{fill:#0003ff;}.cls-4,.cls-5,.cls-6{fill-rule:evenodd;}.cls-5{fill:red;}</style><linearGradient id="Безымянный_градиент_2" x1="25.41" y1="43.88" x2="25.41" y2="49.48" gradientUnits="userSpaceOnUse"><stop offset="0" stop-color="#ed6e1e"/><stop offset="0.51" stop-color="#f68b1a"/><stop offset="1" stop-color="#ffa915"/></linearGradient><linearGradient id="Безымянный_градиент_2-2" x1="206.91" y1="49" x2="206.91" y2="0" xlink:href="#Безымянный_градиент_2"/></defs><title>logo-ekatalog-2</title><path class="cls-1" d="M580.88,227.29a9.76,9.76,0,0,1-7.57-3,10.91,10.91,0,0,1-2.72-7.66v-.8a11.88,11.88,0,0,1,2.64-8,9,9,0,0,1,7.27-3.08,8.43,8.43,0,0,1,6.7,2.67,10.58,10.58,0,0,1,2.33,7.2v3H576.62l-.06.12a5.84,5.84,0,0,0,1.35,3.61,4.51,4.51,0,0,0,3.59,1.38,12.24,12.24,0,0,0,3.33-.4,14.21,14.21,0,0,0,2.84-1.22l1.58,3.6a10.77,10.77,0,0,1-3.53,1.78A15.6,15.6,0,0,1,580.88,227.29Zm-.38-18a3.23,3.23,0,0,0-2.71,1.22,6,6,0,0,0-1.15,3.21l0,.1h7.12v-.44a5,5,0,0,0-.78-3A2.88,2.88,0,0,0,580.5,209.31Z" transform="translate(-570.59 -171)"/><path class="cls-1" d="M636.28,226.87a10.62,10.62,0,0,1-.55-1.56,9.6,9.6,0,0,1-.33-1.68,8.11,8.11,0,0,1-2.39,2.62,5.9,5.9,0,0,1-3.52,1,7.32,7.32,0,0,1-5.25-1.75,6.3,6.3,0,0,1-1.84-4.77,5.71,5.71,0,0,1,2.46-4.94c1.63-1.17,4-1.75,7.15-1.75h3.28v-1.72a3.35,3.35,0,0,0-.82-2.42,3.19,3.19,0,0,0-2.44-.87,3.12,3.12,0,0,0-2.19.7,2.42,2.42,0,0,0-.77,1.89h-5.63l0-.12a5.52,5.52,0,0,1,2.4-4.74,10.35,10.35,0,0,1,6.61-2,9.69,9.69,0,0,1,6.32,2,6.84,6.84,0,0,1,2.41,5.63v8.95a17.26,17.26,0,0,0,.23,2.86,14.42,14.42,0,0,0,.73,2.66Zm-5.35-3.9a5,5,0,0,0,2.72-.76,4.06,4.06,0,0,0,1.64-1.76v-3.07H632a3.9,3.9,0,0,0-2.81.92,3.06,3.06,0,0,0-1,2.27,2.28,2.28,0,0,0,.71,1.75A2.82,2.82,0,0,0,630.93,223Z" transform="translate(-570.59 -171)"/><path class="cls-1" d="M663.54,209.68h-6.92v17.19h-5.87V209.68h-6.83v-4.47h19.62Z" transform="translate(-570.59 -171)"/><path class="cls-1" d="M679.08,226.87a10.62,10.62,0,0,1-.55-1.56,9.6,9.6,0,0,1-.33-1.68,8.08,8.08,0,0,1-2.38,2.62,6,6,0,0,1-3.53,1,7.28,7.28,0,0,1-5.24-1.75,6.27,6.27,0,0,1-1.85-4.77,5.71,5.71,0,0,1,2.46-4.94c1.63-1.17,4-1.75,7.15-1.75h3.29v-1.72a3.39,3.39,0,0,0-.82-2.42,3.21,3.21,0,0,0-2.45-.87,3.15,3.15,0,0,0-2.19.7,2.42,2.42,0,0,0-.77,1.89h-5.62l0-.12a5.48,5.48,0,0,1,2.39-4.74,10.37,10.37,0,0,1,6.61-2,9.69,9.69,0,0,1,6.32,2,6.84,6.84,0,0,1,2.41,5.63v8.95a17.26,17.26,0,0,0,.23,2.86,15.25,15.25,0,0,0,.73,2.66Zm-5.35-3.9a5.05,5.05,0,0,0,2.73-.76,4.19,4.19,0,0,0,1.64-1.76v-3.07h-3.29a3.9,3.9,0,0,0-2.81.92,3.06,3.06,0,0,0-1,2.27,2.28,2.28,0,0,0,.71,1.75A2.82,2.82,0,0,0,673.73,223Z" transform="translate(-570.59 -171)"/><path class="cls-1" d="M707.08,205.21v21.66h-5.82V209.74h-5.21v4.7q0,6.41-2,9.42t-6.7,3h-.94l-.06-4.6.62,0a2.48,2.48,0,0,0,2.6-1.64,20.93,20.93,0,0,0,.6-6.17v-9.23Z" transform="translate(-570.59 -171)"/><path class="cls-1" d="M710.43,215.84a11.65,11.65,0,0,1,2.7-7.94,9.43,9.43,0,0,1,7.49-3.09,9.55,9.55,0,0,1,7.53,3.08,11.61,11.61,0,0,1,2.72,8v.42a11.62,11.62,0,0,1-2.71,8,10.72,10.72,0,0,1-15,0,11.57,11.57,0,0,1-2.71-8Zm5.82.42a9.38,9.38,0,0,0,1,4.76,3.59,3.59,0,0,0,3.36,1.79A3.55,3.55,0,0,0,724,221a9.39,9.39,0,0,0,1-4.75v-.42a9.21,9.21,0,0,0-1.06-4.7,3.59,3.59,0,0,0-3.34-1.83,3.55,3.55,0,0,0-3.31,1.84,9.33,9.33,0,0,0-1.06,4.69Z" transform="translate(-570.59 -171)"/><path class="cls-1" d="M749.17,209.74h-8.95v17.13h-5.85V205.21h14.8Z" transform="translate(-570.59 -171)"/><path class="cls-1" d="M612.83,215.23l7-9.87h-6.77l-5.18,8.15h-1.31V195.79h-5.84v16.94a5,5,0,0,1,0,6.54V227h5.84V218h1.49l6,9.06h6.73Z" transform="translate(-570.59 -171)"/><circle class="cls-2" cx="25.41" cy="45" r="4"/><circle class="cls-3" cx="206.91" cy="24.5" r="24.5"/><rect class="cls-1" x="198" y="17.26" width="21.4" height="3.59"/><polygon class="cls-4" points="198 24.42 198 20.84 219.4 20.84 218.54 24.42 198 24.42"/><polygon class="cls-5" points="198 24.42 199.32 28.01 217.48 26.63 218.25 24.42 198 24.42"/><path class="cls-6" d="M780.61,206.56a3.17,3.17,0,1,1,4.48,0A3.16,3.16,0,0,1,780.61,206.56Zm-9.85,0a3.17,3.17,0,1,1,4.48,0A3.18,3.18,0,0,1,770.76,206.56Zm12.88-1.45a1.11,1.11,0,1,0-1.58,0A1.13,1.13,0,0,0,783.64,205.11Zm-9.85,0a1.12,1.12,0,0,0,0-1.57,1.11,1.11,0,1,0-1.57,1.57A1.12,1.12,0,0,0,773.79,205.11Zm-6.16-2.51,1.22-3.15-2-10.86a.49.49,0,0,1,0-.12L766,185l-3.4,1.09a1,1,0,1,1-.62-1.95l4.43-1.42a1,1,0,0,1,1.3.72l1.14,4.29,22.23-.57a1,1,0,0,1,1,1.35l-3,9.11a1,1,0,0,1-.85.7l-17.56,2.24-.45,1.19,0,0a3.88,3.88,0,0,0-1,2.27h-.57A1,1,0,0,1,767.63,202.6Zm8.37-.66h3.84A4,4,0,0,0,779,204h-2.2A3.82,3.82,0,0,0,776,201.94Zm9.86,0h.51a1,1,0,0,1,.29,2A3.72,3.72,0,0,0,785.86,201.94Zm-15.1-3.46,16.51-2.11,2.36-7.11-20.43.52Zm-3.87-9.95v-.06h0Z" transform="translate(-570.59 -171)"/></svg>